<svg width="37" height="30" viewBox="0 0 37 30" fill="none" xmlns="http://www.w3.org/2000/svg">
<g clip-path="url(#clip0_64_83)">
<path d="M8.02465 13.812C7.45146 14.3205 7.23883 15.1341 7.50693 15.8552C7.77504 16.567 8.46841 17.057 9.23575 17.057H14.5978L9.17103 12.8136L8.01541 13.8213L8.02465 13.812Z" fill="white"/>
<path d="M11.2419 27.4206C10.8998 28.2157 11.1587 29.1402 11.8521 29.6487C12.5547 30.1572 13.5069 30.1109 14.1541 29.547L21.8921 22.7704L15.4022 17.6949L11.2327 27.4206H11.2419Z" fill="white"/>
<path d="M28.9461 16.604C29.5193 16.0955 29.7319 15.282 29.4638 14.5609C29.1957 13.849 28.5023 13.3683 27.735 13.3683H21.2912L25.7381 2.99539C26.0801 2.20032 25.8213 1.27582 25.1279 0.767344C24.4345 0.25887 23.473 0.305095 22.8259 0.869039L11.3806 10.8814L24.1017 20.8382L28.9553 16.5855L28.9461 16.604Z" fill="white"/>
<path d="M1.38675 1.38675L35.5932 28.1972" stroke="white" stroke-width="3" stroke-miterlimit="10" stroke-linecap="round"/>
</g>
<defs>
<clipPath id="clip0_64_83">
<rect width="36.98" height="30" fill="white"/>
</clipPath>
</defs>
</svg>
